<?xml version="1.0" encoding="UTF-8" standalone="no"?>
<!DOCTYPE svg PUBLIC "-//W3C//DTD SVG 1.1//EN" "http://www.w3.org/Graphics/SVG/1.1/DTD/svg11.dtd">
<svg xmlns="http://www.w3.org/2000/svg" version="1.1" viewBox="0 0 1024 1024" width="1024.0pt" height="1024.0pt" xmlns:xlink="http://www.w3.org/1999/xlink">
<defs>
<path d="M 0.00 0.00 L 1024.00 0.00 L 1024.00 1024.00 L 0.00 1024.00 L 0.00 0.00 Z M 1012.77 457.00 C 1010.97 438.37 1007.57 420.17 1003.43 401.94 C 994.54 362.61 980.45 324.40 962.57 288.28 C 937.81 238.32 905.11 192.68 866.41 152.57 C 841.27 126.43 813.33 103.09 783.35 82.69 C 757.13 65.11 729.17 50.04 700.00 37.95 C 668.26 24.64 634.86 15.11 601.02 8.91 C 549.35 -0.63 495.98 -1.90 443.97 5.65 C 405.02 11.11 366.79 20.84 330.26 35.47 C 299.14 48.08 269.32 63.67 241.45 82.40 C 220.84 96.03 201.55 111.70 183.06 128.05 C 148.07 159.51 117.70 195.58 91.74 234.79 C 74.10 261.86 59.15 290.55 46.58 320.30 C 28.64 364.10 15.71 410.94 10.99 458.10 C 6.36 498.91 7.49 540.36 13.21 581.00 C 15.63 597.59 18.65 613.95 22.95 630.16 C 33.48 673.11 50.16 714.61 71.78 753.17 C 92.38 790.26 117.80 824.26 146.65 855.33 C 162.14 871.88 178.71 887.31 196.23 901.69 C 260.98 955.43 339.42 992.20 422.01 1008.10 C 438.75 1011.38 455.87 1013.40 472.83 1015.07 C 529.14 1019.98 585.90 1014.17 640.33 999.13 C 693.37 984.42 743.99 961.52 789.59 930.64 C 817.34 911.91 842.99 890.39 866.62 866.70 C 895.75 837.62 921.29 804.90 942.84 769.86 C 963.81 735.05 980.82 697.97 993.04 659.20 C 1001.01 633.65 1006.94 607.50 1010.79 581.01 C 1012.66 566.40 1014.21 551.72 1015.07 537.01 C 1016.44 510.36 1015.81 483.51 1012.77 457.00 Z" id="p0" />
<path d="M 601.02 8.91 C 634.86 15.11 668.26 24.64 700.00 37.95 C 729.17 50.04 757.13 65.11 783.35 82.69 C 813.33 103.09 841.27 126.43 866.41 152.57 C 905.11 192.68 937.81 238.32 962.57 288.28 C 980.45 324.40 994.54 362.61 1003.43 401.94 C 1007.57 420.17 1010.97 438.37 1012.77 457.00 C 1015.81 483.51 1016.44 510.36 1015.07 537.01 C 1014.21 551.72 1012.66 566.40 1010.79 581.01 C 1006.94 607.50 1001.01 633.65 993.04 659.20 C 980.82 697.97 963.81 735.05 942.84 769.86 C 921.29 804.90 895.75 837.62 866.62 866.70 C 842.99 890.39 817.34 911.91 789.59 930.64 C 743.99 961.52 693.37 984.42 640.33 999.13 C 585.90 1014.17 529.14 1019.98 472.83 1015.07 C 455.87 1013.40 438.75 1011.38 422.01 1008.10 C 339.42 992.20 260.98 955.43 196.23 901.69 C 178.71 887.31 162.14 871.88 146.65 855.33 C 117.80 824.26 92.38 790.26 71.78 753.17 C 50.16 714.61 33.48 673.11 22.95 630.16 C 18.65 613.95 15.63 597.59 13.21 581.00 C 7.49 540.36 6.36 498.91 10.99 458.10 C 15.71 410.94 28.64 364.10 46.58 320.30 C 59.15 290.55 74.10 261.86 91.74 234.79 C 117.70 195.58 148.07 159.51 183.06 128.05 C 201.55 111.70 220.84 96.03 241.45 82.40 C 269.32 63.67 299.14 48.08 330.26 35.47 C 366.79 20.84 405.02 11.11 443.97 5.65 C 495.98 -1.90 549.35 -0.63 601.02 8.91 Z M 1003.73 538.81 L 1004.24 538.15 C 1004.52 524.09 1004.79 510.05 1004.46 496.00 C 1004.35 492.06 1004.50 487.94 1003.85 484.08 C 1003.42 468.56 1001.43 453.21 999.13 437.86 C 993.59 401.07 983.17 364.86 969.59 330.25 C 954.61 294.00 936.00 258.80 913.39 226.72 C 892.05 195.99 867.47 167.40 840.06 141.93 C 789.48 94.12 728.65 57.37 662.47 35.69 C 614.15 19.72 562.84 11.90 512.00 11.59 C 472.93 11.85 433.79 16.65 395.83 25.94 C 331.78 41.70 271.05 71.32 219.18 112.05 C 209.91 119.42 200.53 126.79 191.85 134.85 C 133.29 187.26 86.48 252.62 56.41 325.26 C 35.44 376.18 22.43 430.97 19.58 486.00 C 18.98 509.16 18.78 532.79 21.06 555.85 C 27.71 623.56 48.45 689.79 81.94 749.03 C 105.71 791.20 135.64 829.93 170.14 863.87 C 197.02 889.84 226.32 913.17 258.17 932.78 C 341.65 984.33 440.94 1010.85 539.06 1004.95 C 555.12 1004.21 571.02 1002.45 586.86 999.70 C 610.62 996.14 633.70 990.13 656.61 983.02 C 674.09 977.28 691.50 970.98 708.27 963.42 C 775.46 933.61 835.70 888.28 883.65 832.64 C 894.38 820.36 903.91 807.57 913.49 794.47 C 951.33 741.48 978.73 680.83 992.97 617.27 C 998.03 595.43 1001.17 573.11 1003.25 550.81 C 1003.59 546.82 1003.66 542.80 1003.73 538.81 Z" id="p1" />
<path d="M 512.00 11.59 C 562.84 11.90 614.15 19.72 662.47 35.69 C 728.65 57.37 789.48 94.12 840.06 141.93 C 867.47 167.40 892.05 195.99 913.39 226.72 C 936.00 258.80 954.61 294.00 969.59 330.25 C 983.17 364.86 993.59 401.07 999.13 437.86 C 1001.43 453.21 1003.42 468.56 1003.85 484.08 C 1004.50 487.94 1004.35 492.06 1004.46 496.00 C 1004.79 510.05 1004.52 524.09 1004.24 538.15 L 1003.73 538.81 C 1003.66 542.80 1003.59 546.82 1003.25 550.81 C 1001.17 573.11 998.03 595.43 992.97 617.27 C 978.73 680.83 951.33 741.48 913.49 794.47 C 903.91 807.57 894.38 820.36 883.65 832.64 C 835.70 888.28 775.46 933.61 708.27 963.42 C 691.50 970.98 674.09 977.28 656.61 983.02 C 633.70 990.13 610.62 996.14 586.86 999.70 C 571.02 1002.45 555.12 1004.21 539.06 1004.95 C 440.94 1010.85 341.65 984.33 258.17 932.78 C 226.32 913.17 197.02 889.84 170.14 863.87 C 135.64 829.93 105.71 791.20 81.94 749.03 C 48.45 689.79 27.71 623.56 21.06 555.85 C 18.78 532.79 18.98 509.16 19.58 486.00 C 22.43 430.97 35.44 376.18 56.41 325.26 C 86.48 252.62 133.29 187.26 191.85 134.85 C 200.53 126.79 209.91 119.42 219.18 112.05 C 271.05 71.32 331.78 41.70 395.83 25.94 C 433.79 16.65 472.93 11.85 512.00 11.59 Z M 171.59 397.49 C 171.70 404.92 171.51 412.34 171.60 419.78 C 183.56 419.65 195.48 419.89 207.43 420.21 C 207.23 451.29 207.39 482.37 207.36 513.45 C 217.72 513.31 228.07 513.49 238.43 513.33 C 238.59 482.33 238.39 451.31 238.54 420.31 C 250.09 419.20 261.80 420.09 273.39 419.78 C 273.46 412.37 273.38 404.96 273.38 397.55 C 239.45 397.40 205.52 397.54 171.59 397.49 Z M 464.23 513.41 C 489.62 513.39 515.01 513.38 540.39 513.40 C 540.35 508.53 540.34 503.66 540.43 498.79 C 545.24 498.75 550.05 498.66 554.86 498.70 C 554.83 494.01 554.86 489.31 554.87 484.61 C 559.79 484.38 564.72 484.37 569.64 484.51 C 569.88 465.27 569.69 446.01 569.69 426.77 C 564.89 426.73 560.10 426.67 555.30 426.65 C 555.24 421.93 555.22 417.22 555.26 412.50 C 550.33 412.25 545.41 412.33 540.48 412.33 C 540.34 407.37 540.38 402.42 540.42 397.46 C 515.09 397.64 489.64 397.28 464.33 397.61 C 463.73 409.42 464.35 421.18 464.20 433.00 C 464.13 456.32 464.40 479.71 464.03 503.01 C 464.19 506.48 464.25 509.94 464.23 513.41 Z M 761.65 397.50 C 761.57 404.94 761.65 412.37 761.60 419.81 C 770.38 419.82 779.23 419.54 787.98 420.11 C 790.96 420.21 793.80 419.90 796.76 419.71 C 796.84 450.95 796.80 482.18 796.80 513.42 C 807.34 513.34 817.88 513.44 828.42 513.37 C 828.48 482.33 828.46 451.29 828.43 420.25 C 839.97 419.25 851.69 420.01 863.27 419.81 C 863.18 412.37 863.40 404.95 863.13 397.52 C 829.30 397.46 795.48 397.52 761.65 397.50 Z M 350.75 444.74 C 350.85 453.63 350.69 462.51 350.74 471.39 C 360.73 471.75 370.72 471.34 380.72 471.59 C 381.35 462.94 381.36 454.26 381.16 445.59 C 380.09 444.49 378.43 444.89 377.00 444.75 C 368.25 444.74 359.50 444.83 350.75 444.74 Z M 651.41 444.85 C 651.48 453.72 651.31 462.60 651.45 471.48 C 661.50 471.63 671.54 471.40 681.60 471.59 C 681.43 462.63 681.83 453.69 681.44 444.74 C 671.43 444.86 661.42 444.66 651.41 444.85 Z M 210.40 575.82 C 214.02 576.24 217.65 576.23 221.29 576.32 C 221.25 586.80 221.31 597.29 221.26 607.77 C 223.32 607.79 225.39 607.80 227.45 607.82 C 227.46 597.31 227.45 586.79 227.49 576.28 C 231.13 576.32 234.67 576.14 238.28 575.62 C 238.27 573.57 238.27 571.51 238.28 569.45 C 229.04 569.40 219.74 569.18 210.51 569.49 C 210.34 571.59 210.40 573.72 210.40 575.82 Z M 279.76 585.43 C 274.60 585.40 269.45 585.44 264.30 585.51 C 264.28 580.15 264.28 574.79 264.30 569.43 C 262.09 569.40 259.88 569.38 257.66 569.37 C 257.62 582.19 257.70 595.01 257.65 607.82 C 259.88 607.79 262.10 607.75 264.32 607.70 C 264.29 602.40 264.28 597.09 264.41 591.79 C 269.53 591.79 274.65 591.76 279.78 591.78 C 279.88 597.07 279.85 602.37 279.81 607.66 C 282.03 607.74 284.25 607.78 286.47 607.81 C 286.55 594.99 286.48 582.16 286.55 569.34 C 284.48 569.36 282.40 569.32 280.34 569.49 C 279.74 574.84 279.86 580.10 279.76 585.43 Z M 305.75 569.45 C 305.67 582.21 305.87 594.97 305.70 607.72 C 315.15 608.04 324.65 607.65 334.11 607.79 C 334.13 605.71 334.15 603.64 334.17 601.56 C 326.88 601.61 319.60 601.54 312.31 601.61 C 312.34 598.37 312.35 595.13 312.40 591.89 C 318.07 591.68 323.72 591.82 329.39 591.77 C 329.39 589.65 329.39 587.54 329.39 585.42 C 323.71 585.40 318.04 585.47 312.36 585.45 C 312.34 582.38 312.35 579.31 312.35 576.25 C 319.51 576.14 326.61 575.93 333.77 576.28 C 333.98 573.98 334.12 571.68 334.23 569.37 C 324.74 569.37 315.24 569.26 305.75 569.45 Z M 400.70 569.42 C 400.77 582.20 400.71 594.97 400.73 607.75 C 407.74 607.82 414.76 607.79 421.78 607.76 C 421.73 606.55 421.68 605.35 421.63 604.14 C 422.92 603.88 424.22 603.63 425.52 603.39 C 425.58 602.03 425.65 600.67 425.72 599.32 C 426.95 599.29 428.19 599.26 429.43 599.23 C 429.49 592.29 429.41 585.34 429.47 578.40 C 428.24 578.36 427.01 578.32 425.78 578.27 C 425.74 577.13 425.69 575.98 425.65 574.83 C 424.30 574.24 422.97 573.63 421.62 573.04 C 421.64 571.81 421.66 570.58 421.68 569.36 C 414.69 569.31 407.70 569.38 400.70 569.42 Z M 448.76 569.47 C 449.66 580.36 448.97 591.38 449.20 602.31 C 449.92 602.34 450.63 602.37 451.35 602.40 C 452.38 603.20 453.42 603.99 454.47 604.76 C 454.44 605.77 454.41 606.78 454.38 607.78 C 460.30 607.80 466.23 607.81 472.15 607.77 C 472.22 606.47 472.29 605.17 472.38 603.87 C 473.14 603.40 473.90 602.93 474.67 602.46 C 475.61 602.47 476.56 602.48 477.50 602.48 C 477.53 591.44 477.50 580.40 477.50 569.36 C 475.38 569.36 473.27 569.37 471.15 569.38 C 470.99 580.01 471.77 590.82 470.49 601.38 C 465.48 601.64 460.49 601.55 455.48 601.53 C 455.49 590.81 455.48 580.09 455.48 569.36 C 453.24 569.39 451.00 569.42 448.76 569.47 Z M 519.30 574.72 C 517.75 574.79 516.20 574.86 514.65 574.92 C 514.24 577.18 513.78 579.44 513.43 581.71 C 511.78 581.67 510.13 581.65 508.49 581.63 C 508.48 579.48 508.47 577.32 508.45 575.17 C 506.78 575.20 505.10 575.23 503.43 575.27 C 503.41 573.28 503.39 571.30 503.38 569.31 C 501.18 569.35 498.97 569.40 496.77 569.47 C 496.70 582.21 496.88 594.94 496.72 607.67 C 498.93 607.75 501.13 607.79 503.34 607.84 C 503.33 599.31 503.37 590.79 503.32 582.26 C 504.37 582.29 505.42 582.31 506.47 582.34 L 506.14 584.71 L 508.36 584.69 C 508.33 587.04 508.31 589.40 508.29 591.75 C 510.28 591.73 512.26 591.70 514.24 591.66 C 514.55 589.24 513.29 585.42 515.85 584.03 L 515.70 582.38 C 516.72 582.31 517.74 582.23 518.75 582.16 C 518.64 590.72 519.51 599.21 519.23 607.79 C 521.31 607.79 523.39 607.78 525.47 607.78 C 525.50 594.97 525.49 582.17 525.48 569.37 C 523.27 569.39 521.02 569.34 518.83 569.61 C 518.89 571.32 519.13 573.02 519.30 574.72 Z M 545.49 569.47 C 545.37 582.23 545.51 595.01 545.50 607.78 C 553.25 607.83 561.00 607.75 568.75 607.82 C 568.76 606.88 568.76 605.93 568.76 604.99 C 569.48 604.14 570.20 603.29 570.91 602.44 C 572.09 602.44 573.27 602.44 574.45 602.45 C 574.48 598.82 574.49 595.20 574.49 591.58 C 572.79 591.51 571.08 591.44 569.38 591.36 C 569.36 589.81 569.35 588.26 569.34 586.71 C 571.02 586.49 572.71 586.28 574.40 586.10 C 574.49 582.49 574.50 578.89 574.50 575.28 C 573.36 575.29 572.22 575.30 571.08 575.30 C 570.29 574.29 569.48 573.29 568.67 572.30 C 568.69 571.32 568.72 570.35 568.75 569.38 C 561.00 569.36 553.24 569.31 545.49 569.47 Z M 697.41 574.38 C 696.15 574.40 694.90 574.42 693.64 574.44 C 693.60 575.72 693.56 577.00 693.52 578.28 C 692.23 578.31 690.93 578.35 689.64 578.39 C 689.68 588.20 689.66 598.01 689.68 607.82 C 691.90 607.80 694.11 607.76 696.32 607.70 C 696.31 603.96 696.34 600.22 696.35 596.48 C 701.48 596.44 706.62 596.37 711.75 596.50 C 711.70 600.26 711.70 604.03 711.72 607.79 C 713.91 607.77 716.10 607.75 718.28 607.70 C 718.22 597.95 718.27 588.20 718.28 578.45 C 717.02 578.40 715.76 578.35 714.50 578.31 C 714.46 577.00 714.42 575.70 714.38 574.39 C 713.11 574.33 711.83 574.27 710.56 574.21 C 710.55 572.61 710.54 571.00 710.53 569.40 C 706.21 569.44 701.86 569.22 697.54 569.47 C 697.41 571.10 697.43 572.74 697.41 574.38 Z M 738.41 608.32 C 743.29 607.94 748.09 607.62 752.99 608.01 C 757.49 607.91 761.98 607.71 766.49 607.80 C 766.46 605.71 766.44 603.62 766.41 601.52 C 759.10 601.67 751.79 601.57 744.48 601.60 C 744.67 590.85 744.41 580.10 744.57 569.35 C 742.51 569.38 740.44 569.35 738.38 569.53 C 738.17 582.44 738.22 595.41 738.41 608.32 Z M 786.49 569.47 C 786.37 582.24 786.53 595.02 786.41 607.79 C 790.95 607.75 795.47 607.76 800.00 608.06 C 804.81 607.88 809.60 607.69 814.42 607.78 C 814.44 605.71 814.47 603.64 814.49 601.58 C 807.22 601.64 799.96 601.58 792.69 601.58 C 792.74 598.53 792.59 595.46 792.82 592.42 C 793.37 591.98 794.05 591.77 794.84 591.80 C 799.82 591.65 804.81 591.85 809.78 591.75 C 809.81 589.63 809.83 587.51 809.85 585.39 C 804.12 585.45 798.39 585.48 792.66 585.49 C 792.70 582.41 792.73 579.33 792.72 576.26 C 797.51 576.41 802.24 575.61 806.99 576.04 C 809.50 576.26 811.95 575.97 814.44 575.71 C 814.46 573.60 814.48 571.49 814.51 569.39 C 805.17 569.46 795.82 569.25 786.49 569.47 Z M 839.69 569.42 C 839.66 570.57 839.63 571.72 839.60 572.86 C 838.69 573.59 837.79 574.34 836.90 575.09 C 836.02 575.15 835.13 575.21 834.25 575.27 C 834.28 578.96 834.30 582.65 834.39 586.34 C 835.33 586.34 836.27 586.33 837.22 586.32 C 838.04 587.12 838.87 587.92 839.70 588.72 C 839.67 589.73 839.63 590.75 839.60 591.77 C 845.31 591.91 850.75 591.44 856.42 592.20 C 856.39 595.28 856.40 598.35 856.40 601.43 C 851.04 601.66 845.78 601.83 840.44 601.18 C 840.46 599.52 840.47 597.86 840.48 596.21 C 838.41 596.21 836.33 596.21 834.26 596.22 C 834.27 598.33 834.28 600.43 834.29 602.53 C 835.26 602.52 836.23 602.51 837.20 602.50 C 838.71 604.15 839.81 605.33 840.08 607.70 C 845.89 607.74 851.72 607.98 857.53 607.77 C 857.44 606.76 857.34 605.75 857.24 604.73 C 858.07 603.98 858.88 603.22 859.69 602.45 C 860.73 602.45 861.77 602.45 862.81 602.45 C 862.82 598.83 862.82 595.22 862.83 591.60 C 861.86 591.56 860.90 591.52 859.93 591.48 C 859.07 590.65 858.20 589.84 857.32 589.04 C 857.31 587.85 857.30 586.66 857.29 585.47 C 852.44 585.42 847.60 585.47 842.75 585.47 C 842.00 585.05 841.24 584.62 840.49 584.20 C 840.54 581.74 840.57 579.28 840.59 576.82 C 846.32 575.34 850.67 575.47 856.41 576.69 C 856.41 578.37 856.42 580.04 856.42 581.71 C 858.54 581.71 860.67 581.72 862.79 581.71 C 862.80 579.56 862.82 577.41 862.83 575.26 C 861.67 575.31 860.50 575.36 859.34 575.41 L 859.33 573.43 L 857.33 573.41 C 857.32 572.07 857.31 570.74 857.30 569.40 C 851.43 569.32 845.56 569.33 839.69 569.42 Z M 642.19 569.37 C 642.20 571.50 642.20 573.64 642.20 575.77 C 645.70 575.72 649.14 575.84 652.61 576.25 C 652.62 586.73 652.65 597.22 652.63 607.70 C 654.81 607.74 656.99 607.78 659.16 607.80 C 659.14 597.10 659.09 586.40 659.27 575.71 C 662.74 575.83 666.19 576.14 669.66 576.31 C 669.71 574.00 669.75 571.70 669.78 569.39 C 660.59 569.35 651.39 569.37 642.19 569.37 Z" id="p2" />
<path d="M 273.38 397.55 C 273.38 404.96 273.46 412.37 273.39 419.78 C 261.80 420.09 250.09 419.20 238.54 420.31 C 238.39 451.31 238.59 482.33 238.43 513.33 C 228.07 513.49 217.72 513.31 207.36 513.45 C 207.39 482.37 207.23 451.29 207.43 420.21 C 195.48 419.89 183.56 419.65 171.60 419.78 C 171.51 412.34 171.70 404.92 171.59 397.49 C 205.52 397.54 239.45 397.40 273.38 397.55 Z" id="p3" />
<path d="M 464.33 397.61 C 489.64 397.28 515.09 397.64 540.42 397.46 C 540.38 402.42 540.34 407.37 540.48 412.33 C 545.41 412.33 550.33 412.25 555.26 412.50 C 555.22 417.22 555.24 421.93 555.30 426.65 C 560.10 426.67 564.89 426.73 569.69 426.77 C 569.69 446.01 569.88 465.27 569.64 484.51 C 564.72 484.37 559.79 484.38 554.87 484.61 C 554.86 489.31 554.83 494.01 554.86 498.70 C 550.05 498.66 545.24 498.75 540.43 498.79 C 540.34 503.66 540.35 508.53 540.39 513.40 C 515.01 513.38 489.62 513.39 464.23 513.41 C 464.25 509.94 464.19 506.48 464.03 503.01 C 464.40 479.71 464.13 456.32 464.20 433.00 C 464.35 421.18 463.73 409.42 464.33 397.61 Z M 495.59 495.35 C 505.25 495.44 514.91 495.34 524.57 495.38 C 524.67 491.77 524.72 488.16 524.74 484.55 C 529.52 484.52 534.30 484.48 539.09 484.48 C 539.26 479.65 539.34 474.83 539.28 470.00 C 539.17 456.49 539.51 442.96 539.15 429.46 C 534.34 429.41 529.52 429.47 524.71 429.44 C 524.71 425.83 524.66 422.23 524.55 418.63 C 514.89 418.65 505.24 418.59 495.58 418.70 C 495.45 444.24 495.41 469.81 495.59 495.35 Z" id="p4" />
<path d="M 863.13 397.52 C 863.40 404.95 863.18 412.37 863.27 419.81 C 851.69 420.01 839.97 419.25 828.43 420.25 C 828.46 451.29 828.48 482.33 828.42 513.37 C 817.88 513.44 807.34 513.34 796.80 513.42 C 796.80 482.18 796.84 450.95 796.76 419.71 C 793.80 419.90 790.96 420.21 787.98 420.11 C 779.23 419.54 770.38 419.82 761.60 419.81 C 761.65 412.37 761.57 404.94 761.65 397.50 C 795.48 397.52 829.30 397.46 863.13 397.52 Z" id="p5" />
<path d="M 495.58 418.70 C 505.24 418.59 514.89 418.65 524.55 418.63 C 524.66 422.23 524.71 425.83 524.71 429.44 C 529.52 429.47 534.34 429.41 539.15 429.46 C 539.51 442.96 539.17 456.49 539.28 470.00 C 539.34 474.83 539.26 479.65 539.09 484.48 C 534.30 484.48 529.52 484.52 524.74 484.55 C 524.72 488.16 524.67 491.77 524.57 495.38 C 514.91 495.34 505.25 495.44 495.59 495.35 C 495.41 469.81 495.45 444.24 495.58 418.70 Z" id="p6" />
<path d="M 350.75 444.74 C 359.50 444.83 368.25 444.74 377.00 444.75 C 378.43 444.89 380.09 444.49 381.16 445.59 C 381.36 454.26 381.35 462.94 380.72 471.59 C 370.72 471.34 360.73 471.75 350.74 471.39 C 350.69 462.51 350.85 453.63 350.75 444.74 Z" id="p7" />
<path d="M 651.41 444.85 C 661.42 444.66 671.43 444.86 681.44 444.74 C 681.83 453.69 681.43 462.63 681.60 471.59 C 671.54 471.40 661.50 471.63 651.45 471.48 C 651.31 462.60 651.48 453.72 651.41 444.85 Z" id="p8" />
<path d="M 210.51 569.49 C 219.74 569.18 229.04 569.40 238.28 569.45 C 238.27 571.51 238.27 573.57 238.28 575.62 C 234.67 576.14 231.13 576.32 227.49 576.28 C 227.45 586.79 227.46 597.31 227.45 607.82 C 225.39 607.80 223.32 607.79 221.26 607.77 C 221.31 597.29 221.25 586.80 221.29 576.32 C 217.65 576.23 214.02 576.24 210.40 575.82 C 210.40 573.72 210.34 571.59 210.51 569.49 Z" id="p9" />
<path d="M 280.34 569.49 C 282.40 569.32 284.48 569.36 286.55 569.34 C 286.48 582.16 286.55 594.99 286.47 607.81 C 284.25 607.78 282.03 607.74 279.81 607.66 C 279.85 602.37 279.88 597.07 279.78 591.78 C 274.65 591.76 269.53 591.79 264.41 591.79 C 264.28 597.09 264.29 602.40 264.32 607.70 C 262.10 607.75 259.88 607.79 257.65 607.82 C 257.70 595.01 257.62 582.19 257.66 569.37 C 259.88 569.38 262.09 569.40 264.30 569.43 C 264.28 574.79 264.28 580.15 264.30 585.51 C 269.45 585.44 274.60 585.40 279.76 585.43 C 279.86 580.10 279.74 574.84 280.34 569.49 Z" id="p10" />
<path d="M 334.23 569.37 C 334.12 571.68 333.98 573.98 333.77 576.28 C 326.61 575.93 319.51 576.14 312.35 576.25 C 312.35 579.31 312.34 582.38 312.36 585.45 C 318.04 585.47 323.71 585.40 329.39 585.42 C 329.39 587.54 329.39 589.65 329.39 591.77 C 323.72 591.82 318.07 591.68 312.40 591.89 C 312.35 595.13 312.34 598.37 312.31 601.61 C 319.60 601.54 326.88 601.61 334.17 601.56 C 334.15 603.64 334.13 605.71 334.11 607.79 C 324.65 607.65 315.15 608.04 305.70 607.72 C 305.87 594.97 305.67 582.21 305.75 569.45 C 315.24 569.26 324.74 569.37 334.23 569.37 Z" id="p11" />
<path d="M 421.68 569.36 C 421.66 570.58 421.64 571.81 421.62 573.04 C 422.97 573.63 424.30 574.24 425.65 574.83 C 425.69 575.98 425.74 577.13 425.78 578.27 C 427.01 578.32 428.24 578.36 429.47 578.40 C 429.41 585.34 429.49 592.29 429.43 599.23 C 428.19 599.26 426.95 599.29 425.72 599.32 C 425.65 600.67 425.58 602.03 425.52 603.39 C 424.22 603.63 422.92 603.88 421.63 604.14 C 421.68 605.35 421.73 606.55 421.78 607.76 C 414.76 607.79 407.74 607.82 400.73 607.75 C 400.71 594.97 400.77 582.20 400.70 569.42 C 407.70 569.38 414.69 569.31 421.68 569.36 Z M 407.41 601.56 C 410.71 601.52 414.17 601.84 417.43 601.32 C 418.44 600.68 419.38 599.90 420.34 599.19 C 420.37 598.36 420.40 597.53 420.43 596.70 L 423.24 596.61 C 423.33 591.29 422.84 586.00 422.70 580.69 C 419.59 579.92 419.78 576.78 416.95 576.12 C 414.29 575.51 410.16 575.48 407.55 576.28 C 407.24 584.69 407.57 593.14 407.41 601.56 Z" id="p12" />
<path d="M 455.48 569.36 C 455.48 580.09 455.49 590.81 455.48 601.53 C 460.49 601.55 465.48 601.64 470.49 601.38 C 471.77 590.82 470.99 580.01 471.15 569.38 C 473.27 569.37 475.38 569.36 477.50 569.36 C 477.50 580.40 477.53 591.44 477.50 602.48 C 476.56 602.48 475.61 602.47 474.67 602.46 C 473.90 602.93 473.14 603.40 472.38 603.87 C 472.29 605.17 472.22 606.47 472.15 607.77 C 466.23 607.81 460.30 607.80 454.38 607.78 C 454.41 606.78 454.44 605.77 454.47 604.76 C 453.42 603.99 452.38 603.20 451.35 602.40 C 450.63 602.37 449.92 602.34 449.20 602.31 C 448.97 591.38 449.66 580.36 448.76 569.47 C 451.00 569.42 453.24 569.39 455.48 569.36 Z" id="p13" />
<path d="M 518.83 569.61 C 521.02 569.34 523.27 569.39 525.48 569.37 C 525.49 582.17 525.50 594.97 525.47 607.78 C 523.39 607.78 521.31 607.79 519.23 607.79 C 519.51 599.21 518.64 590.72 518.75 582.16 C 517.74 582.23 516.72 582.31 515.70 582.38 L 515.85 584.03 C 513.29 585.42 514.55 589.24 514.24 591.66 C 512.26 591.70 510.28 591.73 508.29 591.75 C 508.31 589.40 508.33 587.04 508.36 584.69 L 506.14 584.71 L 506.47 582.34 C 505.42 582.31 504.37 582.29 503.32 582.26 C 503.37 590.79 503.33 599.31 503.34 607.84 C 501.13 607.79 498.93 607.75 496.72 607.67 C 496.88 594.94 496.70 582.21 496.77 569.47 C 498.97 569.40 501.18 569.35 503.38 569.31 C 503.39 571.30 503.41 573.28 503.43 575.27 C 505.10 575.23 506.78 575.20 508.45 575.17 C 508.47 577.32 508.48 579.48 508.49 581.63 C 510.13 581.65 511.78 581.67 513.43 581.71 C 513.78 579.44 514.24 577.18 514.65 574.92 C 516.20 574.86 517.75 574.79 519.30 574.72 C 519.13 573.02 518.89 571.32 518.83 569.61 Z" id="p14" />
<path d="M 568.75 569.38 C 568.72 570.35 568.69 571.32 568.67 572.30 C 569.48 573.29 570.29 574.29 571.08 575.30 C 572.22 575.30 573.36 575.29 574.50 575.28 C 574.50 578.89 574.49 582.49 574.40 586.10 C 572.71 586.28 571.02 586.49 569.34 586.71 C 569.35 588.26 569.36 589.81 569.38 591.36 C 571.08 591.44 572.79 591.51 574.49 591.58 C 574.49 595.20 574.48 598.82 574.45 602.45 C 573.27 602.44 572.09 602.44 570.91 602.44 C 570.20 603.29 569.48 604.14 568.76 604.99 C 568.76 605.93 568.76 606.88 568.75 607.82 C 561.00 607.75 553.25 607.83 545.50 607.78 C 545.51 595.01 545.37 582.23 545.49 569.47 C 553.24 569.31 561.00 569.36 568.75 569.38 Z M 551.87 576.27 C 551.86 579.32 551.83 582.38 551.80 585.43 C 557.07 585.48 562.36 585.48 567.62 585.30 C 567.78 582.38 567.79 579.45 567.77 576.53 C 562.48 576.09 557.18 576.12 551.87 576.27 Z M 551.85 591.83 C 551.82 595.06 551.82 598.29 551.79 601.52 C 557.08 601.59 562.38 601.66 567.66 601.43 C 567.77 598.22 567.74 595.02 567.59 591.81 C 562.67 591.81 557.75 591.75 552.83 591.82 L 551.85 591.83 Z" id="p15" />
<path d="M 697.54 569.47 C 701.86 569.22 706.21 569.44 710.53 569.40 C 710.54 571.00 710.55 572.61 710.56 574.21 C 711.83 574.27 713.11 574.33 714.38 574.39 C 714.42 575.70 714.46 577.00 714.50 578.31 C 715.76 578.35 717.02 578.40 718.28 578.45 C 718.27 588.20 718.22 597.95 718.28 607.70 C 716.10 607.75 713.91 607.77 711.72 607.79 C 711.70 604.03 711.70 600.26 711.75 596.50 C 706.62 596.37 701.48 596.44 696.35 596.48 C 696.34 600.22 696.31 603.96 696.32 607.70 C 694.11 607.76 691.90 607.80 689.68 607.82 C 689.66 598.01 689.68 588.20 689.64 578.39 C 690.93 578.35 692.23 578.31 693.52 578.28 C 693.56 577.00 693.60 575.72 693.64 574.44 C 694.90 574.42 696.15 574.40 697.41 574.38 C 697.43 572.74 697.41 571.10 697.54 569.47 Z M 700.27 579.40 C 699.00 579.48 697.73 579.56 696.45 579.64 C 696.29 583.22 696.28 586.79 696.35 590.37 C 701.43 590.34 706.51 590.30 711.60 590.30 C 711.70 586.76 711.66 583.23 711.53 579.69 C 710.52 579.66 709.51 579.63 708.50 579.60 C 708.24 578.29 707.96 576.99 707.69 575.69 C 705.29 575.74 702.89 575.76 700.48 575.77 C 700.41 576.98 700.34 578.19 700.27 579.40 Z" id="p16" />
<path d="M 738.38 569.53 C 740.44 569.35 742.51 569.38 744.57 569.35 C 744.41 580.10 744.67 590.85 744.48 601.60 C 751.79 601.57 759.10 601.67 766.41 601.52 C 766.44 603.62 766.46 605.71 766.49 607.80 C 761.98 607.71 757.49 607.91 752.99 608.01 C 748.09 607.62 743.29 607.94 738.41 608.32 C 738.22 595.41 738.17 582.44 738.38 569.53 Z" id="p17" />
<path d="M 814.51 569.39 C 814.48 571.49 814.46 573.60 814.44 575.71 C 811.95 575.97 809.50 576.26 806.99 576.04 C 802.24 575.61 797.51 576.41 792.72 576.26 C 792.73 579.33 792.70 582.41 792.66 585.49 C 798.39 585.48 804.12 585.45 809.85 585.39 C 809.83 587.51 809.81 589.63 809.78 591.75 C 804.81 591.85 799.82 591.65 794.84 591.80 C 794.05 591.77 793.37 591.98 792.82 592.42 C 792.59 595.46 792.74 598.53 792.69 601.58 C 799.96 601.58 807.22 601.64 814.49 601.58 C 814.47 603.64 814.44 605.71 814.42 607.78 C 809.60 607.69 804.81 607.88 800.00 608.06 C 795.47 607.76 790.95 607.75 786.41 607.79 C 786.53 595.02 786.37 582.24 786.49 569.47 C 795.82 569.25 805.17 569.46 814.51 569.39 Z" id="p18" />
<path d="M 839.69 569.42 C 845.56 569.33 851.43 569.32 857.30 569.40 C 857.31 570.74 857.32 572.07 857.33 573.41 L 859.33 573.43 L 859.34 575.41 C 860.50 575.36 861.67 575.31 862.83 575.26 C 862.82 577.41 862.80 579.56 862.79 581.71 C 860.67 581.72 858.54 581.71 856.42 581.71 C 856.42 580.04 856.41 578.37 856.41 576.69 C 850.67 575.47 846.32 575.34 840.59 576.82 C 840.57 579.28 840.54 581.74 840.49 584.20 C 841.24 584.62 842.00 585.05 842.75 585.47 C 847.60 585.47 852.44 585.42 857.29 585.47 C 857.30 586.66 857.31 587.85 857.32 589.04 C 858.20 589.84 859.07 590.65 859.93 591.48 C 860.90 591.52 861.86 591.56 862.83 591.60 C 862.82 595.22 862.82 598.83 862.81 602.45 C 861.77 602.45 860.73 602.45 859.69 602.45 C 858.88 603.22 858.07 603.98 857.24 604.73 C 857.34 605.75 857.44 606.76 857.53 607.77 C 851.72 607.98 845.89 607.74 840.08 607.70 C 839.81 605.33 838.71 604.15 837.20 602.50 C 836.23 602.51 835.26 602.52 834.29 602.53 C 834.28 600.43 834.27 598.33 834.26 596.22 C 836.33 596.21 838.41 596.21 840.48 596.21 C 840.47 597.86 840.46 599.52 840.44 601.18 C 845.78 601.83 851.04 601.66 856.40 601.43 C 856.40 598.35 856.39 595.28 856.42 592.20 C 850.75 591.44 845.31 591.91 839.60 591.77 C 839.63 590.75 839.67 589.73 839.70 588.72 C 838.87 587.92 838.04 587.12 837.22 586.32 C 836.27 586.33 835.33 586.34 834.39 586.34 C 834.30 582.65 834.28 578.96 834.25 575.27 C 835.13 575.21 836.02 575.15 836.90 575.09 C 837.79 574.34 838.69 573.59 839.60 572.86 C 839.63 571.72 839.66 570.57 839.69 569.42 Z" id="p19" />
<path d="M 642.19 569.37 C 651.39 569.37 660.59 569.35 669.78 569.39 C 669.75 571.70 669.71 574.00 669.66 576.31 C 666.19 576.14 662.74 575.83 659.27 575.71 C 659.09 586.40 659.14 597.10 659.16 607.80 C 656.99 607.78 654.81 607.74 652.63 607.70 C 652.65 597.22 652.62 586.73 652.61 576.25 C 649.14 575.84 645.70 575.72 642.20 575.77 C 642.20 573.64 642.20 571.50 642.19 569.37 Z" id="p20" />
<path d="M 407.55 576.28 C 410.16 575.48 414.29 575.51 416.95 576.12 C 419.78 576.78 419.59 579.92 422.70 580.69 C 422.84 586.00 423.33 591.29 423.24 596.61 L 420.43 596.70 C 420.40 597.53 420.37 598.36 420.34 599.19 C 419.38 599.90 418.44 600.68 417.43 601.32 C 414.17 601.84 410.71 601.52 407.41 601.56 C 407.57 593.14 407.24 584.69 407.55 576.28 Z" id="p21" />
<path d="M 700.48 575.77 C 702.89 575.76 705.29 575.74 707.69 575.69 C 707.96 576.99 708.24 578.29 708.50 579.60 C 709.51 579.63 710.52 579.66 711.53 579.69 C 711.66 583.23 711.70 586.76 711.60 590.30 C 706.51 590.30 701.43 590.34 696.35 590.37 C 696.28 586.79 696.29 583.22 696.45 579.64 C 697.73 579.56 699.00 579.48 700.27 579.40 C 700.34 578.19 700.41 576.98 700.48 575.77 Z" id="p22" />
<path d="M 551.87 576.27 C 557.18 576.12 562.48 576.09 567.77 576.53 C 567.79 579.45 567.78 582.38 567.62 585.30 C 562.36 585.48 557.07 585.48 551.80 585.43 C 551.83 582.38 551.86 579.32 551.87 576.27 Z" id="p23" />
<path d="M 551.85 591.83 L 552.83 591.82 C 557.75 591.75 562.67 591.81 567.59 591.81 C 567.74 595.02 567.77 598.22 567.66 601.43 C 562.38 601.66 557.08 601.59 551.79 601.52 C 551.82 598.29 551.82 595.06 551.85 591.83 Z" id="p24" />
</defs>
<g stroke-width="10pt">
<use stroke="#010000" xlink:href="#p0" />
<use stroke="#fcfcfd" xlink:href="#p1" />
<use stroke="#010000" xlink:href="#p2" />
<use stroke="#fdc904" xlink:href="#p3" />
<use stroke="#fdc904" xlink:href="#p4" />
<use stroke="#fdc904" xlink:href="#p5" />
<use stroke="#010000" xlink:href="#p6" />
<use stroke="#fdc904" xlink:href="#p7" />
<use stroke="#fdc904" xlink:href="#p8" />
<use stroke="#fcfcfd" xlink:href="#p9" />
<use stroke="#fcfcfd" xlink:href="#p10" />
<use stroke="#fcfcfd" xlink:href="#p11" />
<use stroke="#fcfcfd" xlink:href="#p12" />
<use stroke="#fcfcfd" xlink:href="#p13" />
<use stroke="#fcfcfd" xlink:href="#p14" />
<use stroke="#fcfcfd" xlink:href="#p15" />
<use stroke="#fcfcfd" xlink:href="#p16" />
<use stroke="#fcfcfd" xlink:href="#p17" />
<use stroke="#fcfcfd" xlink:href="#p18" />
<use stroke="#fcfcfd" xlink:href="#p19" />
<use stroke="#fcfcfd" xlink:href="#p20" />
<use stroke="#010000" xlink:href="#p21" />
<use stroke="#010000" xlink:href="#p22" />
<use stroke="#010000" xlink:href="#p23" />
<use stroke="#010000" xlink:href="#p24" />
</g>
<g>
<use fill="#010000" xlink:href="#p0" />
<use fill="#fcfcfd" xlink:href="#p1" />
<use fill="#010000" xlink:href="#p2" />
<use fill="#fdc904" xlink:href="#p3" />
<use fill="#fdc904" xlink:href="#p4" />
<use fill="#fdc904" xlink:href="#p5" />
<use fill="#010000" xlink:href="#p6" />
<use fill="#fdc904" xlink:href="#p7" />
<use fill="#fdc904" xlink:href="#p8" />
<use fill="#fcfcfd" xlink:href="#p9" />
<use fill="#fcfcfd" xlink:href="#p10" />
<use fill="#fcfcfd" xlink:href="#p11" />
<use fill="#fcfcfd" xlink:href="#p12" />
<use fill="#fcfcfd" xlink:href="#p13" />
<use fill="#fcfcfd" xlink:href="#p14" />
<use fill="#fcfcfd" xlink:href="#p15" />
<use fill="#fcfcfd" xlink:href="#p16" />
<use fill="#fcfcfd" xlink:href="#p17" />
<use fill="#fcfcfd" xlink:href="#p18" />
<use fill="#fcfcfd" xlink:href="#p19" />
<use fill="#fcfcfd" xlink:href="#p20" />
<use fill="#010000" xlink:href="#p21" />
<use fill="#010000" xlink:href="#p22" />
<use fill="#010000" xlink:href="#p23" />
<use fill="#010000" xlink:href="#p24" />
</g>
</svg>